<svg width="40" height="40" viewBox="0 0 40 40" fill="none" xmlns="http://www.w3.org/2000/svg">
<circle cx="20" cy="20" r="20" fill="#E01B51" />
<path d="M17.4871 22.5156C17.1569 22.1854 16.895 21.7934 16.7164 21.362C16.5377 20.9306 16.4457 20.4683 16.4457 20.0013C16.4457 19.5344 16.5377 19.072 16.7164 18.6407C16.895 18.2093 17.1569 17.8173 17.4871 17.4871C17.8173 17.1569 18.2093 16.895 18.6407 16.7164C19.072 16.5377 19.5344 16.4457 20.0013 16.4457C20.4683 16.4457 20.9306 16.5377 21.362 16.7164C21.7934 16.895 22.1854 17.1569 22.5156 17.4871" stroke="white" stroke-width="2" troke-linecap="round" stroke-linejoin="round"/>
<path d="M19.3725 20.6284L19.5271 20.848C20.4064 22.0369 21.656 22.8997 23.0793 23.3007C24.5025 23.7017 26.0188 23.6181 27.3893 23.0631C26.8849 24.2769 26.0892 25.3477 25.0726 26.1808C24.0559 27.0139 22.8496 27.5837 21.5604 27.8398C20.2712 28.0958 18.9387 28.0303 17.6809 27.649C16.423 27.2676 15.2785 26.5822 14.3485 25.6533M12 20H12.8889M20 12V12.8889M14.3111 14.3111L14.9333 14.9333M12 28L28 12" stroke="white" stroke-width="2" stroke-linecap="round" stroke-linejoin="round"/>
</svg>